<svg width="29" height="29" viewBox="0 0 29 29" fill="none" xmlns="http://www.w3.org/2000/svg">
<path d="M14.5 25.375C11.9625 25.375 9.71701 24.6049 7.76354 23.0647C5.81007 21.5244 4.54132 19.5557 3.95729 17.1583C3.87674 16.8562 3.93715 16.5795 4.13854 16.3282C4.33993 16.0769 4.61181 15.9307 4.95417 15.8896C5.27639 15.8493 5.5684 15.9097 5.83021 16.0708C6.09201 16.2319 6.27326 16.4736 6.37396 16.7958C6.85729 18.6083 7.85417 20.0885 9.36458 21.2365C10.875 22.3844 12.5868 22.9583 14.5 22.9583C16.8562 22.9583 18.8552 22.1379 20.497 20.497C22.1387 18.856 22.9591 16.8571 22.9583 14.5C22.9575 12.1429 22.1371 10.1444 20.497 8.50425C18.8568 6.86414 16.8579 6.04328 14.5 6.04167C13.1104 6.04167 11.8115 6.36389 10.6031 7.00833C9.39479 7.65278 8.37778 8.53889 7.55208 9.66667H9.66667C10.009 9.66667 10.2962 9.78267 10.5282 10.0147C10.7602 10.2467 10.8758 10.5334 10.875 10.875C10.8742 11.2166 10.7582 11.5037 10.527 11.7365C10.2958 11.9693 10.009 12.0849 9.66667 12.0833H4.83333C4.49097 12.0833 4.20419 11.9673 3.973 11.7353C3.74181 11.5033 3.62581 11.2166 3.625 10.875V6.04167C3.625 5.69931 3.741 5.41253 3.973 5.18133C4.205 4.95014 4.49178 4.83414 4.83333 4.83333C5.17489 4.83253 5.46207 4.94853 5.69487 5.18133C5.92768 5.41414 6.04328 5.70092 6.04167 6.04167V7.67292C7.06875 6.38403 8.3226 5.38715 9.80321 4.68229C11.2838 3.97743 12.8494 3.625 14.5 3.625C16.0104 3.625 17.4254 3.91218 18.7449 4.48654C20.0644 5.0609 21.2123 5.83585 22.1886 6.81138C23.165 7.7869 23.9403 8.93482 24.5147 10.2551C25.089 11.5754 25.3758 12.9904 25.375 14.5C25.3742 16.0096 25.0874 17.4246 24.5147 18.7449C23.9419 20.0652 23.1666 21.2131 22.1886 22.1886C21.2107 23.1642 20.0628 23.9395 18.7449 24.5147C17.427 25.0898 16.012 25.3766 14.5 25.375ZM15.7083 14.0167L18.7292 17.0375C18.9507 17.259 19.0615 17.541 19.0615 17.8833C19.0615 18.2257 18.9507 18.5076 18.7292 18.7292C18.5076 18.9507 18.2257 19.0615 17.8833 19.0615C17.541 19.0615 17.259 18.9507 17.0375 18.7292L13.6542 15.3458C13.5333 15.225 13.4427 15.0893 13.3823 14.9386C13.3219 14.788 13.2917 14.6317 13.2917 14.4698V9.66667C13.2917 9.32431 13.4077 9.03753 13.6397 8.80633C13.8717 8.57514 14.1584 8.45914 14.5 8.45833C14.8416 8.45753 15.1287 8.57353 15.3615 8.80633C15.5943 9.03914 15.7099 9.32592 15.7083 9.66667V14.0167Z" fill="black"/>
</svg>
