<svg width="22" height="22" viewBox="0 0 22 22" fill="none" xmlns="http://www.w3.org/2000/svg">
<path d="M10.875 21.75C8.3375 21.75 6.09201 20.9799 4.13854 19.4397C2.18507 17.8994 0.916319 15.9307 0.332292 13.5333C0.251736 13.2312 0.312153 12.9545 0.513542 12.7032C0.71493 12.4519 0.986805 12.3057 1.32917 12.2646C1.65139 12.2243 1.9434 12.2847 2.20521 12.4458C2.46701 12.6069 2.64826 12.8486 2.74896 13.1708C3.23229 14.9833 4.22917 16.4635 5.73958 17.6115C7.25 18.7594 8.96181 19.3333 10.875 19.3333C13.2312 19.3333 15.2302 18.5129 16.872 16.872C18.5137 15.231 19.3341 13.2321 19.3333 10.875C19.3325 8.51794 18.5121 6.51936 16.872 4.87925C15.2318 3.23914 13.2329 2.41828 10.875 2.41667C9.48542 2.41667 8.18646 2.73889 6.97812 3.38333C5.76979 4.02778 4.75278 4.91389 3.92708 6.04167H6.04167C6.38403 6.04167 6.67121 6.15767 6.90321 6.38967C7.13521 6.62167 7.2508 6.90844 7.25 7.25C7.24919 7.59156 7.13319 7.87874 6.902 8.11154C6.6708 8.34435 6.38403 8.45994 6.04167 8.45833H1.20833C0.865972 8.45833 0.579195 8.34233 0.348 8.11033C0.116806 7.87833 0.000805555 7.59156 0 7.25V2.41667C0 2.07431 0.116 1.78753 0.348 1.55633C0.58 1.32514 0.866778 1.20914 1.20833 1.20833C1.54989 1.20753 1.83707 1.32353 2.06987 1.55633C2.30268 1.78914 2.41828 2.07592 2.41667 2.41667V4.04792C3.44375 2.75903 4.6976 1.76215 6.17821 1.05729C7.65882 0.352431 9.22442 0 10.875 0C12.3854 0 13.8004 0.287181 15.1199 0.861542C16.4394 1.4359 17.5873 2.21085 18.5636 3.18638C19.54 4.1619 20.3153 5.30982 20.8897 6.63013C21.464 7.95043 21.7508 9.36539 21.75 10.875C21.7492 12.3846 21.4624 13.7996 20.8897 15.1199C20.3169 16.4402 19.5416 17.5881 18.5636 18.5636C17.5857 19.5392 16.4378 20.3145 15.1199 20.8897C13.802 21.4648 12.387 21.7516 10.875 21.75ZM12.0833 10.3917L15.1042 13.4125C15.3257 13.634 15.4365 13.916 15.4365 14.2583C15.4365 14.6007 15.3257 14.8826 15.1042 15.1042C14.8826 15.3257 14.6007 15.4365 14.2583 15.4365C13.916 15.4365 13.634 15.3257 13.4125 15.1042L10.0292 11.7208C9.90833 11.6 9.81771 11.4643 9.75729 11.3136C9.69687 11.163 9.66667 11.0067 9.66667 10.8448V6.04167C9.66667 5.69931 9.78267 5.41253 10.0147 5.18133C10.2467 4.95014 10.5334 4.83414 10.875 4.83333C11.2166 4.83253 11.5037 4.94853 11.7365 5.18133C11.9693 5.41414 12.0849 5.70092 12.0833 6.04167V10.3917Z" fill="white"/>
</svg>
