<svg width="18" height="18" viewBox="0 0 18 18" fill="none" xmlns="http://www.w3.org/2000/svg">
<path d="M8.92946 5.20889C8.92946 4.41948 8.61587 3.66241 8.05767 3.10421C7.49947 2.54601 6.7424 2.23242 5.95299 2.23242H1.48828V13.3942H6.6971C7.28916 13.3942 7.85697 13.6294 8.27562 14.048C8.69426 14.4667 8.92946 15.0345 8.92946 15.6265M8.92946 5.20889V15.6265M8.92946 5.20889C8.92946 4.41948 9.24305 3.66241 9.80125 3.10421C10.3594 2.54601 11.1165 2.23242 11.9059 2.23242H16.3706V13.3942H11.1618C10.5698 13.3942 10.0019 13.6294 9.5833 14.048C9.16465 14.4667 8.92946 15.0345 8.92946 15.6265" stroke="#1E1E1E" stroke-width="1.39765" stroke-linecap="round" stroke-linejoin="round"/>
</svg>
