<svg width="25" height="25" viewBox="0 0 25 25" fill="none" xmlns="http://www.w3.org/2000/svg">
<path d="M11.1185 4.04312H4.04305C3.5069 4.04312 2.9927 4.2561 2.61359 4.63522C2.23447 5.01433 2.02148 5.52853 2.02148 6.06468V20.2156C2.02148 20.7518 2.23447 21.266 2.61359 21.6451C2.9927 22.0242 3.5069 22.2372 4.04305 22.2372H18.194C18.7301 22.2372 19.2443 22.0242 19.6234 21.6451C20.0026 21.266 20.2155 20.7518 20.2155 20.2156V13.1401M18.6994 2.52694C19.1015 2.12483 19.6469 1.89893 20.2155 1.89893C20.7842 1.89893 21.3296 2.12483 21.7317 2.52694C22.1338 2.92906 22.3597 3.47444 22.3597 4.04312C22.3597 4.61179 22.1338 5.15717 21.7317 5.55929L12.1293 15.1617L8.08617 16.1725L9.09695 12.1294L18.6994 2.52694Z" stroke="#1E1E1E" stroke-width="1.61725" stroke-linecap="round" stroke-linejoin="round"/>
</svg>
