<svg width="17" height="14" viewBox="0 0 17 14" fill="none" xmlns="http://www.w3.org/2000/svg">
<path d="M11.5058 12.5533V11.2447C11.5058 10.5506 11.2232 9.88497 10.7201 9.39417C10.2171 8.90337 9.53483 8.62764 8.82343 8.62764H3.45872C2.74732 8.62764 2.06505 8.90337 1.56201 9.39417C1.05897 9.88497 0.776367 10.5506 0.776367 11.2447V12.5533M15.5293 12.5533V11.2447C15.5289 10.6649 15.3311 10.1016 14.9669 9.64328C14.6028 9.18499 14.093 8.85766 13.5175 8.71269M10.8352 0.861423C11.4122 1.00556 11.9236 1.33296 12.2888 1.792C12.654 2.25105 12.8522 2.81562 12.8522 3.39673C12.8522 3.97783 12.654 4.54241 12.2888 5.00146C11.9236 5.4605 11.4122 5.7879 10.8352 5.93204M8.82343 3.39346C8.82343 4.83884 7.6225 6.01055 6.14107 6.01055C4.65965 6.01055 3.45872 4.83884 3.45872 3.39346C3.45872 1.94808 4.65965 0.776367 6.14107 0.776367C7.6225 0.776367 8.82343 1.94808 8.82343 3.39346Z" stroke="#1E1E1E" stroke-width="1.55294" stroke-linecap="round" stroke-linejoin="round"/>
</svg>
