<svg width="66" height="14" viewBox="0 0 66 14" fill="none" xmlns="http://www.w3.org/2000/svg">
<path d="M6.59999 0L8.08178 4.56048H12.877L8.99758 7.37901L10.4794 11.9395L6.59999 9.12096L2.72061 11.9395L4.2024 7.37901L0.323027 4.56048H5.1182L6.59999 0Z" fill="#FFD900"/>
<path d="M19.7997 0L21.2815 4.56048H26.0767L22.1973 7.37901L23.6791 11.9395L19.7997 9.12096L15.9203 11.9395L17.4021 7.37901L13.5227 4.56048H18.3179L19.7997 0Z" fill="#FFD900"/>
<path d="M32.9999 0L34.4817 4.56048H39.2769L35.3975 7.37901L36.8793 11.9395L32.9999 9.12096L29.1205 11.9395L30.6023 7.37901L26.7229 4.56048H31.5181L32.9999 0Z" fill="#FFD900"/>
<path d="M59.3998 0L60.8816 4.56048H65.6768L61.7974 7.37901L63.2792 11.9395L59.3998 9.12096L55.5204 11.9395L57.0022 7.37901L53.1228 4.56048H57.918L59.3998 0Z" fill="#FFD900"/>
<path d="M46.1996 0L47.6814 4.56048H52.4766L48.5972 7.37901L50.079 11.9395L46.1996 9.12096L42.3202 11.9395L43.802 7.37901L39.9226 4.56048H44.7178L46.1996 0Z" fill="#FFD900"/>
</svg>
