<svg width="26" height="26" viewBox="0 0 26 26" fill="none" xmlns="http://www.w3.org/2000/svg">
<path d="M3.1333 6.26676H5.22225M5.22225 6.26676H21.9338M5.22225 6.26676V20.8894C5.22225 21.4434 5.44233 21.9748 5.83409 22.3665C6.22584 22.7583 6.75717 22.9783 7.3112 22.9783H17.7559C18.31 22.9783 18.8413 22.7583 19.233 22.3665C19.6248 21.9748 19.8449 21.4434 19.8449 20.8894V6.26676M8.35567 6.26676V4.17781C8.35567 3.62379 8.57576 3.09246 8.96751 2.70071C9.35926 2.30895 9.89059 2.08887 10.4446 2.08887H14.6225C15.1765 2.08887 15.7079 2.30895 16.0996 2.70071C16.4914 3.09246 16.7115 3.62379 16.7115 4.17781V6.26676M10.4446 11.4891V17.756M14.6225 11.4891V17.756" stroke="#1E1E1E" stroke-width="1.61725" stroke-linecap="round" stroke-linejoin="round"/>
</svg>
